# xmcd
#
# Track frame offsets: 
#        150
#        23667
#        39072
#        56111
#        79254
#        100288
#        114943
#        135284
#        146881
#        161343
#        181625
#        198621
#        218953
#        225485
#
# Disc length: 3168 seconds
#
# Revision: 0
# Processed by: cddbd v1.5.2PL0 Copyright (c) Steve Scherf et al.
# Submitted via: ExactAudioCopy v0.99pb5
#
DISCID=b10c5e0e
DTITLE=Pateyes Pipe - As years pass by
DYEAR=2009
DGENRE=Blues
TTITLE0=As the years go passing by
TTITLE1=Tell the truth
TTITLE2=Remember
TTITLE3=Seven years
TTITLE4=The wanderer
TTITLE5=Givin' up on you
TTITLE6=End of the line
TTITLE7=Hop skip and jump
TTITLE8=Freelance
TTITLE9=Nicoya (Were we poor then?)
TTITLE10=One in a million
TTITLE11=Onsdag 9/12
TTITLE12=Sigurd
TTITLE13=Funk no name
EXTD=
EXTT0=
EXTT1=
EXTT2=
EXTT3=
EXTT4=
EXTT5=
EXTT6=
EXTT7=
EXTT8=
EXTT9=
EXTT10=
EXTT11=
EXTT12=
EXTT13=
PLAYORDER=
